<svg width="24" height="25" viewBox="0 0 24 25" fill="none" xmlns="http://www.w3.org/2000/svg">
<path fill-rule="evenodd" clip-rule="evenodd" d="M12 0.866577C5.37 0.866577 0 6.23658 0 12.8666C0 18.1766 3.435 22.6616 8.205 24.2516C8.805 24.3566 9.03 23.9966 9.03 23.6816C9.03 23.3966 9.015 22.4516 9.015 21.4466C6 22.0016 5.22 20.7116 4.98 20.0366C4.845 19.6916 4.26 18.6266 3.75 18.3416C3.33 18.1166 2.73 17.5616 3.735 17.5466C4.68 17.5316 5.355 18.4166 5.58 18.7766C6.66 20.5916 8.385 20.0816 9.075 19.7666C9.18 18.9866 9.495 18.4616 9.84 18.1616C7.17 17.8616 4.38 16.8266 4.38 12.2366C4.38 10.9316 4.845 9.85158 5.61 9.01158C5.49 8.71158 5.07 7.48158 5.73 5.83158C5.73 5.83158 6.735 5.51658 9.03 7.06158C9.99 6.79158 11.01 6.65658 12.03 6.65658C13.05 6.65658 14.07 6.79158 15.03 7.06158C17.325 5.50158 18.33 5.83158 18.33 5.83158C18.99 7.48158 18.57 8.71158 18.45 9.01158C19.215 9.85158 19.68 10.9166 19.68 12.2366C19.68 16.8416 16.875 17.8616 14.205 18.1616C14.64 18.5366 15.015 19.2566 15.015 20.3816C15.015 21.9866 15 23.2766 15 23.6816C15 23.9966 15.225 24.3716 15.825 24.2516C18.2072 23.4473 20.2772 21.9163 21.7437 19.8739C23.2101 17.8316 23.9993 15.3809 24 12.8666C24 6.23658 18.63 0.866577 12 0.866577Z" fill="white"/>
</svg>
