<svg width="24" height="25" viewBox="0 0 24 25" fill="none" xmlns="http://www.w3.org/2000/svg">
<path d="M11.9933 24.5706C8.71516 24.5706 8.32871 24.5533 7.04942 24.4974C6.0518 24.4646 5.06709 24.2621 4.1377 23.8986C3.34238 23.5895 2.62012 23.1187 2.01677 22.516C1.41343 21.9133 0.942188 21.1919 0.632982 20.3976C0.282918 19.4662 0.0941049 18.4821 0.0746252 17.4874C-9.92859e-09 16.2126 0 15.7948 0 12.5466C0 9.26384 0.0173237 8.8806 0.0746252 7.60981C0.094531 6.61649 0.283337 5.63377 0.632982 4.70362C0.941833 3.90833 1.41339 3.1861 2.01754 2.58305C2.62168 1.98 3.34514 1.5094 4.1417 1.2013C5.07271 0.850267 6.0571 0.661234 7.05208 0.642413C8.32471 0.570557 8.74314 0.570557 11.9933 0.570557C15.2982 0.570557 15.678 0.587855 16.9373 0.642413C17.934 0.661042 18.9228 0.849998 19.8556 1.2013C20.652 1.50976 21.3753 1.98049 21.9794 2.58349C22.5835 3.18649 23.0551 3.90854 23.3644 4.70362C23.7202 5.6484 23.9107 6.64641 23.9254 7.65372C24 8.92851 24 9.34501 24 12.5918C24 15.8387 23.9813 16.2645 23.9254 17.5246C23.9055 18.5203 23.7162 19.5052 23.3657 20.4375C23.0557 21.2323 22.5836 21.9541 21.9793 22.5571C21.3751 23.16 20.6519 23.6309 19.8556 23.9398C18.9228 24.2885 17.938 24.4774 16.9426 24.4974C15.67 24.5706 15.2529 24.5706 11.9933 24.5706ZM11.948 2.67701C8.68851 2.67701 8.35003 2.69298 7.0774 2.7502C6.31736 2.76012 5.56464 2.90009 4.85197 3.16404C4.33217 3.36299 3.85988 3.66851 3.46556 4.06088C3.07124 4.45326 2.76364 4.92379 2.56258 5.44215C2.29606 6.16071 2.15614 6.92052 2.14814 7.68699C2.07751 8.97641 2.07751 9.3144 2.07751 12.5466C2.07751 15.7402 2.08951 16.1274 2.14814 17.4089C2.16013 18.1674 2.30006 18.9192 2.56258 19.6311C2.97035 20.6783 3.80189 21.506 4.8533 21.9079C5.56505 22.1735 6.31762 22.3135 7.0774 22.3217C8.36735 22.3962 8.70716 22.3962 11.948 22.3962C15.2169 22.3962 15.5554 22.3803 16.8173 22.3217C17.5774 22.3125 18.3303 22.1725 19.0428 21.9079C19.5598 21.7074 20.0294 21.4017 20.4217 21.0102C20.814 20.6187 21.1204 20.1499 21.3215 19.6338C21.588 18.9152 21.7279 18.1541 21.7359 17.3876H21.7506C21.8079 16.1155 21.8079 15.7761 21.8079 12.5253C21.8079 9.27448 21.7932 8.9325 21.7359 7.66171C21.7239 6.90383 21.5838 6.15343 21.3215 5.44215C21.1209 4.92524 20.8147 4.45572 20.4223 4.0635C20.03 3.67128 19.5602 3.36495 19.0428 3.16404C18.3304 2.89881 17.5775 2.75879 16.8173 2.7502C15.5287 2.67701 15.1916 2.67701 11.948 2.67701ZM11.9933 18.693C10.7748 18.6938 9.58335 18.3337 8.56975 17.6583C7.55616 16.9828 6.76592 16.0224 6.29898 14.8985C5.83205 13.7746 5.7094 12.5376 5.94655 11.3441C6.1837 10.1505 6.76999 9.05404 7.63127 8.19326C8.49255 7.33248 9.59013 6.74608 10.7852 6.50824C11.9802 6.27041 13.2191 6.39181 14.345 6.85709C15.471 7.32238 16.4335 8.11065 17.1107 9.1222C17.788 10.1338 18.1497 11.3231 18.1499 12.54C18.1478 14.1703 17.4987 15.7333 16.3447 16.8866C15.1907 18.0399 13.626 18.6895 11.9933 18.693ZM11.9933 8.54527C11.2027 8.54527 10.4297 8.7794 9.77229 9.21805C9.11486 9.6567 8.60245 10.2802 8.29987 11.0096C7.99729 11.7391 7.91812 12.5417 8.07237 13.3161C8.22663 14.0905 8.60738 14.8018 9.16648 15.3601C9.72558 15.9184 10.4379 16.2986 11.2134 16.4526C11.9889 16.6066 12.7927 16.5276 13.5232 16.2254C14.2537 15.9233 14.8781 15.4116 15.3174 14.7551C15.7567 14.0987 15.9911 13.3268 15.9911 12.5373C15.9887 11.4793 15.5667 10.4653 14.8175 9.71723C14.0683 8.96911 13.0529 8.54773 11.9933 8.54527ZM18.3898 7.5965C18.2011 7.59581 18.0145 7.55801 17.8405 7.48528C17.6664 7.41254 17.5085 7.30629 17.3756 7.1726C17.1072 6.90258 16.9572 6.53716 16.9586 6.15672C16.96 5.77627 17.1127 5.41197 17.3831 5.14396C17.6535 4.87594 18.0195 4.72616 18.4004 4.72758C18.7814 4.72899 19.1463 4.88147 19.4147 5.15148C19.6831 5.4215 19.8331 5.78692 19.8317 6.16736C19.8302 6.54781 19.6775 6.91211 19.4071 7.18012C19.1367 7.44814 18.7708 7.59792 18.3898 7.5965Z" fill="white"/>
</svg>
