<svg width="24" height="25" viewBox="0 0 24 25" fill="none" xmlns="http://www.w3.org/2000/svg">
<path d="M12 0.570557C5.38269 0.570557 0 5.95325 0 12.5706C0 19.1879 5.38269 24.5706 12 24.5706C18.6173 24.5706 24 19.1879 24 12.5706C24 5.95325 18.6173 0.570557 12 0.570557ZM19.9356 6.10325C21.3635 7.84844 22.2288 10.0696 22.249 12.4898C21.9115 12.4177 18.5221 11.7311 15.1125 12.1609C15.0404 11.985 14.9683 11.809 14.8933 11.6331C14.6798 11.134 14.4519 10.635 14.2125 10.1475C18 8.59844 19.7192 6.39748 19.9356 6.10325ZM12 2.33594C14.6048 2.33594 16.9846 3.31383 18.7933 4.91767C18.6087 5.18017 17.0654 7.25421 13.4221 8.62152C11.7433 5.53498 9.88269 3.00229 9.59712 2.62152C10.3846 2.43113 11.1894 2.33594 12 2.33594ZM7.64135 3.31094C7.9125 3.68017 9.74423 6.22152 11.4404 9.23883C6.64615 10.5109 2.42308 10.4936 1.96442 10.4879C2.63077 7.30613 4.77404 4.66383 7.64135 3.31094ZM1.75096 12.585C1.75096 12.4811 1.75385 12.3744 1.75673 12.2706C2.20385 12.2792 7.17115 12.3427 12.2913 10.8109C12.5856 11.385 12.8654 11.9677 13.1221 12.5504C12.9865 12.5879 12.851 12.6282 12.7183 12.6715C7.43077 14.385 4.61827 19.0436 4.38462 19.4388C2.74904 17.6215 1.75096 15.2186 1.75096 12.585ZM12 22.834C9.62885 22.834 7.44519 22.0263 5.70865 20.6706C5.89327 20.2927 7.96731 16.2859 13.7481 14.2696L13.8144 14.2465C15.2538 17.985 15.8481 21.1206 16.001 22.0206C14.7365 22.561 13.3751 22.8378 12 22.834ZM17.726 21.0831C17.6221 20.46 17.0769 17.46 15.7356 13.7763C18.949 13.2629 21.7702 14.1052 22.1192 14.2148C21.6635 17.0648 20.0279 19.5282 17.726 21.0831Z" fill="white"/>
</svg>
