<svg width="24" height="19" viewBox="0 0 24 19" fill="none" xmlns="http://www.w3.org/2000/svg">
<path d="M24 2.53083C23.1174 2.90083 22.1693 3.15083 21.1726 3.26383C22.201 2.68162 22.9704 1.76529 23.3373 0.685827C22.371 1.22882 21.3135 1.61102 20.2107 1.81583C19.4691 1.06669 18.4868 0.570153 17.4164 0.403301C16.3459 0.236449 15.2472 0.408618 14.2907 0.89308C13.3343 1.37754 12.5737 2.14719 12.127 3.08253C11.6803 4.01787 11.5725 5.06658 11.8203 6.06583C9.86244 5.97282 7.94711 5.49138 6.19863 4.65273C4.45016 3.81409 2.90761 2.63699 1.6711 1.19783C1.2483 1.88783 1.0052 2.68783 1.0052 3.53983C1.00473 4.30682 1.20437 5.06207 1.58641 5.73856C1.96846 6.41505 2.52109 6.99187 3.19528 7.41783C2.4134 7.39429 1.64877 7.19441 0.965031 6.83483V6.89483C0.964952 7.97057 1.35827 9.0132 2.07823 9.84582C2.7982 10.6784 3.80048 11.2498 4.915 11.4628C4.18968 11.6485 3.42923 11.6759 2.69109 11.5428C3.00555 12.4684 3.61807 13.2779 4.44291 13.8578C5.26776 14.4377 6.26363 14.759 7.29111 14.7768C5.5469 16.0722 3.39282 16.7749 1.17537 16.7718C0.782575 16.7719 0.39011 16.7502 0 16.7068C2.25083 18.076 4.87097 18.8026 7.5469 18.7998C16.6053 18.7998 21.5573 11.7018 21.5573 5.54583C21.5573 5.34583 21.552 5.14383 21.5425 4.94383C22.5057 4.2848 23.3372 3.46872 23.9979 2.53383L24 2.53083Z" fill="white"/>
</svg>
